<?xml version="1.0" encoding="UTF-8"?>
<svg id="Calque_1" data-name="Calque 1" xmlns="http://www.w3.org/2000/svg" version="1.1" viewBox="0 0 36.7 36">
  <defs>
    <style>
      .cls-1 {
        fill: #f95555;
        stroke: #fff;
        stroke-width: 2px;
      }

      .cls-2 {
        fill: #fff;
        stroke-width: 0px;
      }
    </style>
  </defs>
  <g id="clock">
    <g id="clock-2">
      <path id="Shape" class="cls-2" d="M16.1,3.8C7.2,3.8,0,11,0,19.9s7.2,16.1,16.1,16.1,16.1-7.2,16.1-16.1S25,3.8,16.1,3.8ZM16.1,34.9c-8.3,0-15-6.7-15-15S7.8,4.9,16.1,4.9s15,6.7,15,15-6.7,15-15,15Z"/>
      <path id="Shape-2" class="cls-2" d="M17.1,18.1v-5.7c0-.3-.3-.6-.6-.6s-.6.3-.6.6v5.7c-.8.2-1.4.8-1.6,1.6h-4c-.3,0-.6.3-.6.6s.3.6.6.6h4c.2,1,1.1,1.7,2.2,1.7s2.2-1,2.2-2.3-.7-1.9-1.7-2.2h.1ZM16.6,21.4c-.6,0-1.1-.5-1.1-1.1s.5-1.1,1.1-1.1,1.1.5,1.1,1.1-.5,1.1-1.1,1.1Z"/>
      <path id="Path" class="cls-2" d="M16.6,9.2c.2,0,.4-.3.4-.6v-.6c0-.3-.2-.6-.4-.6s-.4.3-.4.6v.6c0,.3.2.6.4.6Z"/>
      <path id="Path-2" class="cls-2" d="M16.6,30.6c-.2,0-.4.3-.4.6v.6c0,.3.2.6.4.6s.4-.3.4-.6v-.6c0-.3-.2-.6-.4-.6Z"/>
      <path id="Path-3" class="cls-2" d="M28,19h-.6c-.3,0-.6.2-.6.4s.3.4.6.4h.6c.3,0,.6-.2.6-.4s-.3-.4-.6-.4Z"/>
      <path id="Path-4" class="cls-2" d="M4.8,19h-.6c-.3,0-.6.2-.6.4s.3.4.6.4h.6c.3,0,.6-.2.6-.4s-.3-.4-.6-.4Z"/>
      <path id="Path-5" class="cls-2" d="M23.9,11.1l-.5.5c-.3.3-.3.7,0,.9.1.1.3.2.5.2s.3,0,.5-.2l.5-.5c.3-.3.3-.7,0-.9-.3-.3-.7-.3-.9,0h-.1Z"/>
      <path id="Path-6" class="cls-2" d="M7.8,27.2l-.5.5c-.3.3-.3.7,0,.9,0,.1.3.2.5.2s.3,0,.5-.2l.5-.5c.3-.3.3-.7,0-.9-.3-.3-.7-.3-.9,0h0Z"/>
      <path id="Path-7" class="cls-2" d="M24.4,27.2c-.3-.3-.7-.3-.9,0-.3.3-.3.7,0,.9l.5.5c.1.1.3.2.5.2s.3,0,.5-.2c.3-.3.3-.7,0-.9l-.5-.5h-.1Z"/>
      <path id="Path-8" class="cls-2" d="M8.3,11.1c-.3-.3-.7-.3-.9,0-.3.3-.3.7,0,.9l.5.5c0,.1.3.2.5.2s.3,0,.5-.2c.3-.3.3-.7,0-.9l-.5-.5h0Z"/>
    </g>
    <g id="Ouvert">
      <path id="Oval" class="cls-1" d="M27.7,14.5c3.5,0,6.3-2.8,6.3-6.3s-2.8-6.2-6.3-6.2-6.3,2.8-6.3,6.3,2.8,6.3,6.3,6.3h0Z"/>
    </g>
  </g>
</svg>